<svg width="1200" height="630" viewBox="0 0 1200 630" fill="none" xmlns="http://www.w3.org/2000/svg">
  <rect width="1200" height="630" rx="36" fill="#E8F1FF"/>
  <rect x="42" y="42" width="1116" height="546" rx="28" fill="#FFFFFF" stroke="#BED3FF"/>
  <rect x="92" y="120" width="430" height="390" rx="24" fill="#F8FAFC" stroke="#E2E8F0"/>
  <rect x="576" y="120" width="532" height="390" rx="24" fill="#EFF6FF" stroke="#BFDBFE"/>
  <text x="96" y="92" fill="#2563EB" font-family="Inter, Arial, sans-serif" font-size="26" font-weight="700">RESUME MAKER</text>
  <text x="124" y="188" fill="#0F172A" font-family="Inter, Arial, sans-serif" font-size="28" font-weight="700"># Alex Carter</text>
  <text x="124" y="230" fill="#475569" font-family="Inter, Arial, sans-serif" font-size="18">Markdown resume builder</text>
  <rect x="124" y="264" width="220" height="12" rx="6" fill="#CBD5E1"/>
  <rect x="124" y="294" width="320" height="10" rx="5" fill="#E2E8F0"/>
  <rect x="124" y="314" width="286" height="10" rx="5" fill="#E2E8F0"/>
  <rect x="124" y="360" width="220" height="12" rx="6" fill="#CBD5E1"/>
  <rect x="124" y="390" width="340" height="10" rx="5" fill="#E2E8F0"/>
  <rect x="124" y="410" width="300" height="10" rx="5" fill="#E2E8F0"/>
  <text x="612" y="194" fill="#0F172A" font-family="Inter, Arial, sans-serif" font-size="54" font-weight="700">Write in Markdown.</text>
  <text x="612" y="264" fill="#0F172A" font-family="Inter, Arial, sans-serif" font-size="54" font-weight="700">Preview instantly.</text>
  <text x="612" y="334" fill="#0F172A" font-family="Inter, Arial, sans-serif" font-size="54" font-weight="700">Export polished PDF.</text>
  <text x="612" y="412" fill="#475569" font-family="Inter, Arial, sans-serif" font-size="26">Free, local-first, and built for fast resume editing.</text>
  <rect x="612" y="452" width="244" height="62" rx="18" fill="#2563EB"/>
  <text x="652" y="492" fill="#F8FAFC" font-family="Inter, Arial, sans-serif" font-size="28" font-weight="700">cybershiba.cn</text>
</svg>
